HIERARCHY
ROOT pelvis
{
  OFFSET 0 100 0
  CHANNELS 6 Xposition Yposition Zposition Zrotation Xrotation Yrotation
  JOINT pelvis_right_femur
  {
    OFFSET -10.78128 -3.44521 -0.5502486
    CHANNELS 3 Zrotation Xrotation Yrotation
    JOINT right_femur_tibia
    {
      OFFSET -0.8047443 -44.0398 -0.1307829
      CHANNELS 3 Zrotation Xrotation Yrotation
      JOINT right_tibia_foot
      {
        OFFSET 3.006224 -47.83518 -5
        CHANNELS 3 Zrotation Xrotation Yrotation
        End Site
        {
          OFFSET 0 -5 15
        }
      }
    }
  }
  JOINT pelvis_left_femur
  {
    OFFSET 10.78128 -3.44521 -0.5502486
    CHANNELS 3 Zrotation Xrotation Yrotation
    JOINT left_femur_tibia
    {
      OFFSET 0.8047443 -44.0398 -0.1307829
      CHANNELS 3 Zrotation Xrotation Yrotation
      JOINT left_tibia_foot
      {
        OFFSET -4.370144 -48.10324 -4.275266
        CHANNELS 3 Zrotation Xrotation Yrotation
        End Site
        {
          OFFSET 0 -5 15
        }
      }
    }
  }
  JOINT pelvis_spine1
  {
    OFFSET 0 6.468898 -3.129235
    CHANNELS 3 Zrotation Xrotation Yrotation
    JOINT spine1
    {
      OFFSET 0 23.15396 4.99043
      CHANNELS 3 Zrotation Xrotation Yrotation
      JOINT spine2
      {
        OFFSET 0 20.79997 -5.064912
        CHANNELS 3 Zrotation Xrotation Yrotation
        JOINT neck
        {
          OFFSET 0 14.38658 9.616178
          CHANNELS 3 Zrotation Xrotation Yrotation
          End Site
          {
            OFFSET 0 20 0
          }
        }
      }
      JOINT right_manubrium
      {
        OFFSET -5.722621 16.35077 3.967754
        CHANNELS 3 Zrotation Xrotation Yrotation
        JOINT right_clavicle
        {
          OFFSET -13.16364 1.694482 -4.693211
          CHANNELS 3 Zrotation Xrotation Yrotation
          JOINT right_humerus
          {
            OFFSET -28.5034 -0.3100689 -2.792744
            CHANNELS 3 Zrotation Xrotation Yrotation
            JOINT right_radius
            {
              OFFSET -25.15693 0.02248979 -1.271978
              CHANNELS 3 Zrotation Xrotation Yrotation
              End Site
              {
                OFFSET -15 0 0
              }
            }
          }
        }
      }
      JOINT left_manubrium
      {
        OFFSET 5.722621 16.35077 3.967754
        CHANNELS 3 Zrotation Xrotation Yrotation
        JOINT left_clavicle
        {
          OFFSET 13.16364 1.694482 -4.693211
          CHANNELS 3 Zrotation Xrotation Yrotation
          JOINT left_humerus
          {
            OFFSET 29.39168 -1.063119 -2.237045
            CHANNELS 3 Zrotation Xrotation Yrotation
            JOINT left_radius
            {
              OFFSET 24.59957 -0.9528479 0.9047498
              CHANNELS 3 Zrotation Xrotation Yrotation
              End Site
              {
                OFFSET 15 -0 -0
              }
            }
          }
        }
      }
    }
  }
}
MOTION
Frames: 13
Frame Time: 0.0416666666667
0 103.5113 0 1.547958 -0.8926687 -0.03979127 2.815193 -14.69506 9.009262 -0 35.45998 -0 -5.607522 -14.38407 -4.6603 -7.398019 10.90159 -24.93208 -0 5.329822 -0 1.655487 -21.22671 25.02361 -4.208043 -3.492515 4.601083 2.449631 8.679109 -8.306928 0.3938755 22.36229 8.395889 5.029434 -23.28023 8.04591 7.926903 -19.92767 11.80963 85.3718 37.53394 -22.08641 -0 0 17.36515 -8.029577 8.532936 4.931196 4.874391 -19.45224 -3.181541 -102.5462 39.32495 31.29477 0 0 -17.85645 -11.30013 15.46779 27.67957
0.2963716 103.3018 1.076088 1.354672 -0.7865578 -0.06450859 3.101242 -15.70228 9.086281 -0 35.45875 -0 -5.387205 -14.56601 -4.634614 -7.256323 11.17474 -24.98033 -0 5.125176 -0 1.589533 -21.53363 24.78127 -4.068221 -3.217723 4.520558 2.453921 8.431445 -8.132842 0.5909657 22.35622 8.279612 4.809576 -23.52236 8.366871 7.640693 -19.79896 11.65932 85.34781 37.05698 -21.69776 -0 0 17.37098 -7.559859 8.365716 4.739131 4.956233 -19.18894 -2.913943 -102.1275 39.08572 30.76081 0 0 -17.87612 -10.46979 15.62998 26.80945
0.5343139 102.8391 2.743105 0.9368146 -0.120718 0.1115014 3.42752 -20.06034 7.50555 -0 31.21015 -0 -5.441054 -12.27317 -4.284357 -6.706971 12.46061 -23.5039 -0 4.574916 -0 -0.4630862 -23.36973 21.87521 -3.696164 -2.342836 4.069765 2.44879 7.81706 -8.047804 0.8131586 22.19259 8.241188 4.651941 -23.97359 8.63517 6.710506 -19.0772 11.28757 86.14364 35.87011 -22.08743 -0 0 16.16264 -7.954303 8.430672 4.87351 5.412562 -19.61859 -2.790693 -99.73163 39.03302 28.01098 0 0 -20.58186 -9.475884 15.43188 25.96174
0.753191 102.2948 4.613933 0.7157621 0.2280282 0.3789643 3.692354 -21.7825 7.123674 -0 29.90328 -0 -5.395769 -11.54837 -4.142938 -6.487936 12.93226 -23.14976 -0 4.490035 -0 -1.209625 -23.97132 20.91879 -3.501721 -1.993955 3.90847 2.446616 7.525433 -7.963567 0.9313539 22.09966 8.246921 4.595088 -24.22933 8.834796 6.434276 -18.78438 11.13895 86.32681 35.57961 -22.0857 -0 0 15.80485 -7.864657 8.467656 4.820667 5.603189 -19.64423 -2.631788 -99.01814 38.94485 27.14871 0 0 -21.34932 -8.949371 15.42445 25.49074
0.9273399 101.6442 6.950359 0.2699525 0.9303426 0.7925455 4.162931 -25.00106 6.273161 -0 27.11053 -0 -5.504008 -9.836474 -3.891099 -6.015972 13.8907 -22.24657 -0 4.725623 -0 -2.874344 -24.91854 18.84175 -3.104868 -1.374955 3.527239 2.465992 7.017824 -7.902487 1.081338 21.9037 8.294852 4.548274 -24.67247 9.092894 5.985014 -18.15015 10.90165 86.75945 35.21916 -22.27741 -0 0 14.8922 -7.958909 8.689834 4.856703 5.917435 -19.82189 -2.422212 -97.51818 38.76393 25.36599 0 0 -22.9359 -8.123858 15.35053 24.77177
1.073814 100.9396 9.631004 -0.09941086 1.487558 1.303574 4.567221 -27.1397 5.776391 -0 25.27759 -0 -5.666357 -8.583699 -3.725839 -5.646965 14.5403 -21.60318 -0 5.243017 -0 -4.10029 -25.32356 17.3713 -2.78276 -0.9793806 3.226444 2.500033 6.680422 -7.901537 1.148423 21.7344 8.360682 4.550308 -25.00469 9.24352 5.78726 -17.67087 10.77251 87.02863 35.21134 -22.43809 -0 0 14.19582 -8.049236 8.950376 4.924594 6.089306 -19.93541 -2.274121 -96.52421 38.58176 24.19652 0 0 -23.91148 -7.571621 15.28736 24.29894
1.184407 100.2259 12.78845 -0.6389643 2.158181 1.914902 5.154482 -29.56214 5.237731 -0 23.16925 -0 -6.000285 -7.053503 -3.56091 -5.11717 15.35056 -20.68388 -0 6.496221 -0 -5.619556 -25.40823 15.50991 -2.316284 -0.5277031 2.778498 2.580563 6.299002 -7.953982 1.199023 21.52994 8.42675 4.522641 -25.41535 9.393064 5.5929 -17.01782 10.64851 87.37541 35.31203 -22.63783 -0 0 13.17795 -8.252241 9.365077 5.09532 6.204073 -20.05858 -2.104186 -95.17612 38.14862 22.62213 0 0 -24.91808 -6.748154 15.22852 23.51035
1.268428 99.54703 16.41991 -1.194306 2.73496 2.586231 5.750112 -31.37729 4.83718 -0 21.45768 -0 -6.437177 -5.719012 -3.45769 -4.577047 16.01417 -19.72532 -0 8.363544 -0 -7.006643 -24.97761 13.80207 -1.83432 -0.1793579 2.319299 2.686705 6.01141 -8.066889 1.19161 21.34321 8.479114 4.491138 -25.75005 9.447808 5.525115 -16.37569 10.58849 87.6801 35.59587 -22.84588 -0 0 12.1252 -8.554664 9.857724 5.357099 6.18912 -20.1592 -1.990661 -93.91475 37.59637 21.17929 0 0 -25.60339 -5.975059 15.14058 22.74195
1.330696 98.97891 20.60635 -1.8546 3.224101 3.27611 6.471486 -32.7052 4.517433 -0 19.95458 -0 -7.023323 -4.541712 -3.41214 -3.939845 16.57802 -18.5404 -0 11.46253 -0 -8.380971 -23.81994 12.04879 -1.238245 0.128709 1.783323 2.838934 5.780596 -8.234114 1.1422 21.18274 8.487505 4.396232 -26.03526 9.432594 5.514773 -15.63969 10.57529 87.99476 35.97032 -23.02064 -0 0 10.85418 -8.994078 10.4575 5.744775 6.016613 -20.21181 -1.905769 -92.5007 36.70032 19.56787 0 0 -25.95559 -4.963378 15.02497 21.65007
1.387051 98.60243 25.36437 -2.511677 3.498986 3.909896 7.201658 -33.05334 4.306434 -0 18.90325 -0 -7.666461 -3.796294 -3.443619 -3.299852 16.78559 -17.21982 -0 15.90066 -0 -9.560808 -21.83802 10.50528 -0.5923466 0.3439726 1.283387 3.012028 5.673964 -8.429407 1.038801 21.08191 8.440314 4.251788 -26.16739 9.298627 5.603704 -14.90725 10.63081 88.24967 36.41084 -23.1223 -0 0 9.535733 -9.556857 11.09655 6.236509 5.66884 -20.19631 -1.887498 -91.17213 35.53271 18.07558 0 0 -25.83312 -3.867078 14.81674 20.41488
1.458694 98.52752 30.6966 -3.099947 3.43243 4.384763 7.878711 -31.98849 4.150265 -0 18.35111 -0 -8.299423 -3.706397 -3.549761 -2.705413 16.33405 -15.71654 -0 22.30122 -0 -10.48357 -18.82274 9.272012 0.1014986 0.4742499 0.9152093 3.186186 5.738328 -8.603158 0.8855382 21.08672 8.312823 4.04151 -26.06171 9.025617 5.761979 -14.21598 10.76386 88.40925 36.79283 -23.06673 -0 0 8.226051 -10.2572 11.70718 6.819787 5.12847 -20.08405 -1.948193 -90.01198 34.01062 16.79116 0 0 -25.1083 -2.632988 14.44946 18.96437
1.573385 98.85739 36.51165 -3.433357 2.898937 4.583376 8.284341 -29.06315 3.956263 -0 18.27546 -0 -8.750196 -4.453626 -3.683598 -2.301701 14.74317 -14.1186 -0 30.70829 -0 -11.0624 -14.91363 8.548681 0.7256432 0.5282535 0.893325 3.299271 6.045161 -8.667286 0.6937577 21.23264 8.110141 3.817544 -25.61494 8.589785 5.975534 -13.71449 10.98559 88.39212 37.00063 -22.78498 -0 0 7.182509 -11.07867 12.17003 7.431163 4.457095 -19.89373 -2.110587 -89.26383 32.28874 16.0327 0 0 -23.82364 -1.455704 13.82864 17.54891
1.754036 99.65598 42.61761 -3.307639 1.812511 4.417464 8.192205 -24.02604 3.605737 -0 18.34368 -0 -8.861636 -6.014106 -3.73293 -2.222992 11.44921 -12.48894 -0 40.92161 -0 -11.2703 -10.51164 8.454751 1.112691 0.5652513 1.452303 3.270716 6.64988 -8.506132 0.4995776 21.54695 7.843076 3.652328 -24.768 7.996955 6.178902 -13.55625 11.29621 88.13566 36.91349 -22.20054 -0 0 6.651121 -12.05001 12.38812 8.011497 3.770974 -19.69442 -2.374751 -89.05917 30.5295 16.00802 0 0 -22.2159 -0.4944012 12.9071 16.37348
